<svg width="207" height="107" viewBox="0 0 207 107" xmlns="http://www.w3.org/2000/svg" xmlns:xlink="http://www.w3.org/1999/xlink"><title>Page 1</title><defs><path id="a" d="M0 145h217.428V0H0v145z"/><path d="M54.846 4.409c-.288 1.203-.288 1.603-.288 4.123v3.951c0 3.206.574 4.41 3.214 6.814l3.387 3.092c1.378 1.203 1.722 2.004 1.722 3.837v4.866c0 1.662-.058 2.177-.288 2.578-.229.4-.803.687-1.32.687-.918 0-1.492-.516-1.607-1.546-.057-.458-.057-.573-.057-1.719v-6.928h-5.051v6.184c0 2.52 0 2.921.288 4.123.171.974.63 1.833 1.205 2.52 1.09 1.202 3.042 1.947 5.222 1.947 3.444 0 5.797-1.66 6.371-4.467.287-1.202.344-1.603.344-4.123v-4.981c0-3.322-.573-4.638-2.927-6.758l-3.328-3.034c-1.837-1.66-2.124-2.233-2.124-4.122V7.845c0-1.718.057-2.233.287-2.634.23-.401.804-.687 1.377-.687.919 0 1.435.572 1.55 1.546.058.458.058.802.058 1.775v5.783h4.993V8.532c0-2.52 0-2.92-.287-4.123-.23-.974-.63-1.832-1.205-2.462C65.29.687 63.34 0 61.215 0c-3.385 0-5.739 1.603-6.37 4.409zm-19.484 0c-.286 1.203-.344 1.603-.344 4.123v21.816c0 2.52.058 2.921.344 4.123.173.974.632 1.833 1.205 2.52 1.091 1.202 2.985 1.947 5.28 1.947 3.502 0 5.855-1.604 6.428-4.467.287-1.202.345-1.603.345-4.123V8.532c0-2.52-.058-2.92-.345-4.123a4.988 4.988 0 0 0-1.205-2.462C45.98.687 44.086 0 41.79 0c-3.5 0-5.854 1.603-6.428 4.409zM40.24 32.81c-.057-.401-.057-.973-.057-1.719V7.845c0-1.66.057-2.233.287-2.634.23-.401.804-.687 1.32-.687.919 0 1.492.572 1.607 1.546.057.4.057.802.057 1.775v23.247c0 1.719-.057 2.177-.286 2.578-.23.4-.804.687-1.378.687-.86 0-1.434-.516-1.55-1.546zM.93 4.409C.641 5.612.584 6.012.584 8.532v21.816c0 2.52.057 2.921.344 4.123.173.974.632 1.833 1.205 2.52 1.091 1.202 2.984 1.947 5.28 1.947 3.501 0 5.855-1.604 6.429-4.467.287-1.202.344-1.603.344-4.123v-6.985H9.021v7.73c0 1.718-.057 2.176-.286 2.577-.23.4-.804.687-1.377.687-.862 0-1.436-.516-1.55-1.546-.057-.401-.057-.973-.057-1.719V7.845c0-1.66.056-2.233.286-2.634.23-.401.804-.687 1.32-.687.92 0 1.492.572 1.607 1.546.057.4.057.802.057 1.775v7.157h5.166v-6.47c0-2.52-.057-2.92-.344-4.123a4.988 4.988 0 0 0-1.205-2.462C11.547.687 9.653 0 7.358 0 3.857 0 1.504 1.603.929 4.409zM90.54.344v38.193h6.485c4.993 0 6.83-2.176 6.83-7.96V8.475c0-3.894-.287-5.04-1.493-6.356C101.216.916 99.551.344 97.256.344H90.54zm5.108 4.58h.459c2.18.058 2.64.516 2.64 2.749v23.534c0 2.234-.46 2.75-2.64 2.75h-.46V4.924zM74.042.345v38.193h10.56v-4.58H79.15v-12.6h5.452v-4.524H79.15V4.925h5.452V.344h-10.56zm-53.572 0v38.193h10.39v-4.58h-5.28V.343h-5.11z" id="c"/></defs><g fill="none" fill-rule="evenodd"><g transform="translate(1 -15)"><path d="M166.594 116.36h-19.56c-4.299 0-7.784-3.478-7.784-7.767 0-4.29 3.485-7.768 7.785-7.768h19.559c4.3 0 7.784 3.478 7.784 7.768 0 4.289-3.485 7.766-7.784 7.766z" fill="#B0BEC8"/><path d="M166.594 116.36h-19.56c-4.299 0-7.784-3.478-7.784-7.767 0-4.29 3.485-7.768 7.785-7.768h19.559c4.3 0 7.784 3.478 7.784 7.768 0 4.289-3.485 7.766-7.784 7.766z" stroke="#4E6371" stroke-width="1.5" stroke-linejoin="round"/><path d="M204.8 85.747c0-4.29-3.486-7.767-7.784-7.767h-19.56c-4.3 0-7.785 3.477-7.785 7.767 0 1.404.38 2.719 1.034 3.855h-16.652c-4.3 0-7.785 3.478-7.785 7.768 0 4.289 3.486 7.767 7.785 7.767H191c4.3 0 7.786-3.478 7.786-7.767 0-1.42-.388-2.747-1.056-3.892 3.964-.362 7.07-3.683 7.07-7.731" fill="#B0BEC8"/><path d="M204.8 85.747c0-4.29-3.486-7.767-7.784-7.767h-19.56c-4.3 0-7.785 3.477-7.785 7.767 0 1.404.38 2.719 1.034 3.855h-16.652c-4.3 0-7.785 3.478-7.785 7.768 0 4.289 3.486 7.767 7.785 7.767H191c4.3 0 7.786-3.478 7.786-7.767 0-1.42-.388-2.747-1.056-3.892 3.964-.362 7.07-3.683 7.07-7.731z" stroke="#4E6371" stroke-width="1.5" stroke-linejoin="round"/><path d="M70.94 88.733H33.99c-4.3 0-7.785-3.478-7.785-7.767 0-4.29 3.486-7.767 7.785-7.767h36.95c4.299 0 7.784 3.477 7.784 7.767 0 4.29-3.485 7.767-7.785 7.767" fill="#B0BEC8"/><path d="M70.94 88.733H33.99c-4.3 0-7.785-3.478-7.785-7.767 0-4.29 3.486-7.767 7.785-7.767h36.95c4.299 0 7.784 3.477 7.784 7.767 0 4.29-3.485 7.767-7.785 7.767z" stroke="#4E6371" stroke-width="1.5" stroke-linejoin="round"/><path d="M176.919 111.056H37.82a3.227 3.227 0 0 1-3.231-3.224V33.88a3.228 3.228 0 0 1 3.231-3.224h139.1a3.228 3.228 0 0 1 3.23 3.224v73.952a3.227 3.227 0 0 1-3.23 3.224" fill="#C4CED5"/><path d="M176.919 111.056H37.82a3.227 3.227 0 0 1-3.231-3.224V33.88a3.228 3.228 0 0 1 3.231-3.224h139.1a3.228 3.228 0 0 1 3.23 3.224v73.952a3.227 3.227 0 0 1-3.23 3.224z" stroke="#4E6371" stroke-width="1.5" stroke-linejoin="round"/><mask id="b" fill="#fff"><use xlink:href="#a"/></mask><path d="M38.313 107.423h138.113v-73.03H38.313v73.03z" fill="#E9EDEE" mask="url(#b)"/><path d="M38.313 107.423h138.113v-73.03H38.313v73.03z" stroke="#4E6371" stroke-width="1.5" stroke-linejoin="round" mask="url(#b)"/><path d="M69.074 75.038h-5.166v7.73c0 1.718-.057 2.176-.287 2.578-.23.4-.803.687-1.377.687-.86 0-1.435-.516-1.55-1.547-.057-.4-.057-.973-.057-1.717V59.52c0-1.66.058-2.233.287-2.634.23-.4.803-.687 1.32-.687.918 0 1.492.573 1.607 1.546.057.4.057.802.057 1.775v7.158h5.166v-6.47c0-2.52-.058-2.92-.344-4.123a4.985 4.985 0 0 0-1.206-2.463c-1.09-1.26-2.984-1.947-5.28-1.947-3.501 0-5.855 1.604-6.428 4.41-.287 1.202-.344 1.603-.344 4.122v21.817c0 2.52.057 2.92.344 4.123.172.973.631 1.832 1.205 2.52 1.09 1.202 2.985 1.946 5.28 1.946 3.501 0 5.854-1.603 6.429-4.466.286-1.203.344-1.604.344-4.123v-6.986zm6.283 15.174h10.387v-4.58h-5.28V52.019h-5.107v38.193zm28.149-8.188V60.207c0-2.519-.057-2.92-.344-4.122a4.991 4.991 0 0 0-1.205-2.463c-1.091-1.26-2.985-1.947-5.28-1.947-3.501 0-5.854 1.604-6.429 4.41-.287 1.202-.344 1.603-.344 4.122v21.817c0 2.52.057 2.92.344 4.123.173.973.632 1.832 1.206 2.52 1.09 1.202 2.984 1.946 5.28 1.946 3.501 0 5.854-1.603 6.428-4.466.287-1.203.344-1.604.344-4.123zm-8.436.745V59.52c0-1.66.057-2.233.287-2.634.23-.4.803-.687 1.32-.687.918 0 1.492.573 1.606 1.546.058.4.058.802.058 1.775v23.25c0 1.717-.058 2.175-.287 2.577-.23.4-.804.687-1.377.687-.861 0-1.435-.516-1.55-1.547-.057-.4-.057-.973-.057-1.717zm14.375-6.93v6.185c0 2.52 0 2.92.287 4.123.172.973.631 1.832 1.205 2.52 1.09 1.202 3.042 1.946 5.223 1.946 3.443 0 5.796-1.66 6.37-4.466.288-1.203.345-1.604.345-4.123v-4.982c0-3.321-.574-4.638-2.927-6.756l-3.329-3.035c-1.837-1.66-2.123-2.233-2.123-4.123V59.52c0-1.718.057-2.233.286-2.634.23-.4.804-.687 1.378-.687.918 0 1.435.573 1.55 1.546.057.459.057.802.057 1.775v5.784h4.993v-5.097c0-2.519 0-2.92-.286-4.122-.23-.974-.632-1.833-1.206-2.463-1.09-1.26-3.042-1.947-5.165-1.947-3.387 0-5.74 1.604-6.37 4.41-.288 1.202-.288 1.603-.288 4.122v3.952c0 3.207.574 4.409 3.214 6.814l3.386 3.092c1.377 1.202 1.722 2.004 1.722 3.836v4.868c0 1.66-.058 2.175-.287 2.577-.23.4-.804.687-1.32.687-.918 0-1.492-.516-1.607-1.547-.057-.458-.057-.572-.057-1.717v-6.93h-5.05zm19.484 14.373h10.56v-4.58h-5.453V73.034h5.452V68.51h-5.452V56.6h5.452v-4.58h-10.56v38.192zm16.499 0h6.485c4.993 0 6.83-2.175 6.83-7.959V60.15c0-3.894-.287-5.039-1.493-6.356-1.147-1.202-2.812-1.775-5.108-1.775h-6.714v38.193zm5.107-4.58V56.6h.46c2.18.057 2.64.515 2.64 2.749v23.534c0 2.233-.46 2.749-2.64 2.749h-.46z" fill="#4E6371" mask="url(#b)"/></g><g transform="translate(55.887 36.676)"><mask id="d" fill="#fff"><use xlink:href="#c"/></mask><path d="M0 39.335h104.362V0H0v39.335z" fill="#4E6371" mask="url(#d)"/></g><path d="M47.305 70.89a1.986 1.986 0 0 0-.406-2.232c-.593-.589-1.467-.744-2.247-.403a16.768 16.768 0 0 1-7.116 1.581c-9.364 0-16.98-7.563-16.98-16.862 0-4.773 1.967-9.175 5.525-12.399.593-.557.811-1.456.468-2.23a1.952 1.952 0 0 0-1.904-1.21C11.724 37.6 1.58 48.047 1.58 60.91c0 13.111 10.768 23.805 23.97 23.805 9.301 0 17.853-5.424 21.755-13.824" fill="#E9EDEE"/><path d="M47.305 70.89a1.986 1.986 0 0 0-.406-2.232c-.593-.589-1.467-.744-2.247-.403a16.768 16.768 0 0 1-7.116 1.581c-9.364 0-16.98-7.563-16.98-16.862 0-4.773 1.967-9.175 5.525-12.399.593-.557.811-1.456.468-2.23a1.952 1.952 0 0 0-1.904-1.21C11.724 37.6 1.58 48.047 1.58 60.91c0 13.111 10.768 23.805 23.97 23.805 9.301 0 17.853-5.424 21.755-13.824z" stroke="#4E6371" stroke-width="1.5" stroke-linejoin="round"/><path d="M82.96 87.608H58.32a9.047 9.047 0 0 0 1.213-4.529c0-5.038-4.093-9.121-9.144-9.121H26.82c-5.05 0-9.144 4.083-9.144 9.121a9.06 9.06 0 0 0 1.214 4.53h-1.567c-5.05 0-9.143 4.083-9.143 9.122 0 5.038 4.094 9.122 9.143 9.122H82.96c5.05 0 9.143-4.084 9.143-9.122 0-5.039-4.093-9.123-9.143-9.123" fill="#B0BEC8"/><path d="M82.96 87.608H58.32a9.047 9.047 0 0 0 1.213-4.529c0-5.038-4.093-9.121-9.144-9.121H26.82c-5.05 0-9.144 4.083-9.144 9.121a9.06 9.06 0 0 0 1.214 4.53h-1.567c-5.05 0-9.143 4.083-9.143 9.122 0 5.038 4.094 9.122 9.143 9.122H82.96c5.05 0 9.143-4.084 9.143-9.122 0-5.039-4.093-9.123-9.143-9.123z" stroke="#4E6371" stroke-width="1.5" stroke-linejoin="round"/><path d="M187.787 12.896c0-4.29-3.485-7.767-7.784-7.767h-12.25c-4.3 0-7.785 3.477-7.785 7.767h-5.756c-4.299 0-7.784 3.477-7.784 7.766 0 4.29 3.485 7.768 7.784 7.768h33.575c4.3 0 7.785-3.478 7.785-7.768 0-4.289-3.485-7.766-7.785-7.766" fill="#B0BEC8"/><path d="M187.787 12.896c0-4.29-3.485-7.767-7.784-7.767h-12.25c-4.3 0-7.785 3.477-7.785 7.767h-5.756c-4.299 0-7.784 3.477-7.784 7.766 0 4.29 3.485 7.768 7.784 7.768h33.575c4.3 0 7.785-3.478 7.785-7.768 0-4.289-3.485-7.766-7.785-7.766z" stroke="#4E6371" stroke-width="1.5" stroke-linejoin="round"/><path d="M169.234 22.634h-3.04V19.6c0-.973-.79-1.761-1.765-1.761-.975 0-1.766.788-1.766 1.761v3.033h-3.04c-.975 0-1.765.789-1.765 1.761 0 .973.79 1.762 1.766 1.762h3.04v3.033c0 .972.79 1.761 1.765 1.761.975 0 1.766-.789 1.766-1.761v-3.033h3.04c.974 0 1.765-.789 1.765-1.762 0-.972-.791-1.761-1.766-1.761" fill="#E9EDEE"/><path d="M169.234 22.634h-3.04V19.6c0-.973-.79-1.761-1.765-1.761-.975 0-1.766.788-1.766 1.761v3.033h-3.04c-.975 0-1.765.789-1.765 1.761 0 .973.79 1.762 1.766 1.762h3.04v3.033c0 .972.79 1.761 1.765 1.761.975 0 1.766-.789 1.766-1.761v-3.033h3.04c.974 0 1.765-.789 1.765-1.762 0-.972-.791-1.761-1.766-1.761z" stroke="#4E6371" stroke-width="1.5" stroke-linejoin="round"/><path d="M53.847 13.784h-3.04V10.75c0-.973-.79-1.761-1.765-1.761-.975 0-1.766.788-1.766 1.761v3.033h-3.04c-.975 0-1.765.789-1.765 1.761 0 .973.79 1.762 1.765 1.762h3.04v3.033c0 .972.79 1.761 1.766 1.761.975 0 1.765-.789 1.765-1.761v-3.033h3.04c.975 0 1.766-.789 1.766-1.762 0-.972-.791-1.761-1.766-1.761" fill="#E9EDEE"/><path d="M53.847 13.784h-3.04V10.75c0-.973-.79-1.761-1.765-1.761-.975 0-1.766.788-1.766 1.761v3.033h-3.04c-.975 0-1.765.789-1.765 1.761 0 .973.79 1.762 1.765 1.762h3.04v3.033c0 .972.79 1.761 1.766 1.761.975 0 1.765-.789 1.765-1.761v-3.033h3.04c.975 0 1.766-.789 1.766-1.762 0-.972-.791-1.761-1.766-1.761z" stroke="#4E6371" stroke-width="1.5" stroke-linejoin="round"/><path d="M147.557 5.259h-2.432V2.832a1.41 1.41 0 0 0-1.412-1.409 1.41 1.41 0 0 0-1.412 1.41v2.426h-2.432c-.78 0-1.413.63-1.413 1.409 0 .778.633 1.409 1.413 1.409h2.432v2.426c0 .779.632 1.41 1.412 1.41a1.41 1.41 0 0 0 1.412-1.41V8.077h2.432a1.41 1.41 0 0 0 0-2.818" fill="#E9EDEE"/><path d="M147.557 5.259h-2.432V2.832a1.41 1.41 0 0 0-1.412-1.409 1.41 1.41 0 0 0-1.412 1.41v2.426h-2.432c-.78 0-1.413.63-1.413 1.409 0 .778.633 1.409 1.413 1.409h2.432v2.426c0 .779.632 1.41 1.412 1.41a1.41 1.41 0 0 0 1.412-1.41V8.077h2.432a1.41 1.41 0 0 0 0-2.818z" stroke="#4E6371" stroke-width="1.5" stroke-linejoin="round"/></g></svg>